<?xml version="1.0" encoding="utf-8"?>
<!-- Generator: Adobe Illustrator 23.0.1, SVG Export Plug-In . SVG Version: 6.00 Build 0)  -->
<svg version="1.1" id="Layer_1" xmlns="http://www.w3.org/2000/svg" xmlns:xlink="http://www.w3.org/1999/xlink" x="0px" y="0px"
	 viewBox="0 0 27.6 25.1" style="enable-background:new 0 0 27.6 25.1;" xml:space="preserve">
<style type="text/css">
	.st0{fill:#FFFFFF;}
	.st1{fill:none;}
	.st2{fill:#6A6A6A;}
	.st3{fill:#C7C7C7;}
</style>
<path class="st0" d="M8.4,8.5l-2.8,2.8l7.8,7.8L27.3,5.2l-2.8-2.8l-11.2,11L8.4,8.5z"/>
<g>
	<path class="st1" d="M4.1,3C4.1,3,4.1,3,4.1,3l17,0c0.5,0,1,0.5,1,1v9.2l1.5-1.5l0.5-0.5V4c0-1.1-0.6-2-1.5-2.6L21,3H4.1z"/>
	<path class="st1" d="M22,21c0,0.5-0.5,1-1,1h0C21.6,22,22.1,21.5,22,21l0-7.8l0.3-0.3l1.2-1.2L22,13.3V21z"/>
	<polygon class="st1" points="21,3 22.5,1.5 22.5,1.5 21.6,2.4 	"/>
	<polygon class="st2" points="24,11.3 24,11.3 24.1,11.2 24.1,11.2 	"/>
	<path class="st3" d="M24.1,11.2L24.1,11.2l0,9.8c0,1.6-1.4,3-3,3h-17c-1.6,0-3-1.4-3-3V4c0-1.6,1.4-3,3-3h17c0.5,0,1,0.2,1.5,0.4
		c0,0,0,0,0,0l0.7-0.7C22.7,0.3,21.9,0,21,0H4C1.8,0,0,1.8,0,4v17c0,2.2,1.8,4,4,4h17c2.2,0,4-1.8,4-4V10.3L24.1,11.2z"/>
	<line class="st0" x1="24" y1="11.3" x2="24" y2="11.3"/>
	<path class="st0" d="M24,21v-9.8l-0.5,0.5L22.3,13l-0.3,0.3V21c0,0.5-0.5,1-1,1h0c0,0,0,0,0,0H4c-0.5,0-1-0.5-1-1V4
		c0-0.5,0.5-1,1-1h0c0,0,0,0,0,0H21l0.6-0.6l1-1C22.1,1.2,21.6,1,21,1h-17c-1.6,0-3,1.4-3,3v17c0,1.6,1.4,3,3,3h17
		C22.7,24,24,22.6,24,21z"/>
</g>
</svg>
