<?xml version="1.0" encoding="utf-8"?>
<!-- Generator: Adobe Illustrator 23.0.1, SVG Export Plug-In . SVG Version: 6.00 Build 0)  -->
<svg version="1.1" id="Layer_1" xmlns="http://www.w3.org/2000/svg" xmlns:xlink="http://www.w3.org/1999/xlink" x="0px" y="0px"
	 viewBox="0 0 25.3 25.4" style="enable-background:new 0 0 25.3 25.4;" xml:space="preserve">
<style type="text/css">
	.st0{fill:#C7C7C7;}
	.st1{fill:#FFFFFF;}
</style>
<g>
	<path class="st0" d="M4.1,25.1c-2.2,0-4-1.8-4-4v-17c0-2.2,1.8-4,4-4h17c2.2,0,4,1.8,4,4v17c0,2.2-1.8,4-4,4H4.1z M3.8,22.5
		l17.8-0.1c0.5,0,0.8-0.4,0.8-0.8l0-18.3c0-0.5-0.4-0.8-0.8-0.8l-18,0.1c-0.5,0-0.8,0.4-0.8,0.8l0.2,18.4
		C2.9,22.1,3.3,22.5,3.8,22.5z"/>
	<path class="st1" d="M21.1,3.1c0.5,0,1,0.5,1,1v17c0,0.5-0.5,1-1,1h-17c-0.5,0-1-0.5-1-1v-17c0-0.5,0.5-1,1-1H21.1 M21.1,1.1h-17
		c-1.6,0-3,1.4-3,3v17c0,1.6,1.4,3,3,3h17c1.6,0,3-1.4,3-3v-17C24.1,2.5,22.7,1.1,21.1,1.1z"/>
</g>
</svg>
